<svg width="31" height="30" viewBox="0 0 31 30" fill="none" xmlns="http://www.w3.org/2000/svg">
<mask id="mask0_30_201" style="mask-type:alpha" maskUnits="userSpaceOnUse" x="0" y="0" width="31" height="30">
<rect x="0.517334" width="30" height="30" fill="#D9D9D9"/>
</mask>
<g mask="url(#mask0_30_201)">
<path d="M16.6736 13.8125L11.3611 8.5L13.1423 6.75L16.6736 10.2813L23.7673 3.21875L25.5173 4.96875L16.6736 13.8125ZM18.0173 28.125L9.26733 25.6875V27.5H1.76733V13.75H11.7048L19.4548 16.625C20.1423 16.875 20.6996 17.3125 21.1267 17.9375C21.5538 18.5625 21.7673 19.25 21.7673 20H24.2673C25.309 20 26.1944 20.3438 26.9236 21.0313C27.6528 21.7188 28.0173 22.625 28.0173 23.75V25L18.0173 28.125ZM4.26733 25H6.76733V16.25H4.26733V25ZM17.9548 25.5L25.3923 23.1875C25.3298 22.9583 25.1892 22.7865 24.9705 22.6719C24.7517 22.5573 24.5173 22.5 24.2673 22.5H18.2673C17.6215 22.5 17.0382 22.4583 16.5173 22.375C15.9965 22.2917 15.434 22.1458 14.8298 21.9375L12.6736 21.1875L13.3923 18.8125L15.8923 19.625C16.2673 19.75 16.7048 19.8438 17.2048 19.9063C17.7048 19.9688 18.3923 20 19.2673 20C19.2673 19.7708 19.1996 19.5521 19.0642 19.3438C18.9288 19.1354 18.7673 19 18.5798 18.9375L11.2673 16.25H9.26733V23.125L17.9548 25.5Z" fill="white"/>
</g>
</svg>
