<svg width="48" height="48" viewBox="0 0 48 48" fill="none" xmlns="http://www.w3.org/2000/svg">
<path d="M17.7613 0C16.4113 0 15.26 0.88125 14.8225 2.0875H9.63125C9.525 2.05875 9.415 2.04625 9.305 2.055C9.2725 2.0625 9.24 2.075 9.2075 2.0875H3.13375C1.41625 2.0875 0 3.50125 0 5.2175V41.7388C0 43.455 1.41625 44.87 3.13375 44.87H21.9413C21.9413 46.5863 23.3575 48 25.075 48H43.8813C45.6 48 47.0163 46.5863 47.0163 44.87V20.87C47.0163 19.1537 45.6 17.7388 43.8813 17.7388H35.5238V5.2175C35.5238 3.50125 34.1075 2.0875 32.3888 2.0875H20.7C20.2638 0.88125 19.1125 0 17.7613 0ZM17.7613 2.0875C18.2838 2.0875 18.6838 2.44625 18.7738 2.935C18.7488 3.065 18.7488 3.19625 18.7738 3.32625C18.6838 3.815 18.2838 4.17375 17.7613 4.17375C17.2063 4.17375 16.7663 3.77 16.7163 3.22875C16.7163 3.19625 16.7163 3.16375 16.7163 3.13125C16.7163 2.54375 17.1738 2.0875 17.7613 2.0875ZM3.13375 4.17375H8.35875V7.305C8.35875 9.02 9.775 10.435 11.4925 10.435H24.03C25.7488 10.435 27.165 9.02 27.165 7.305V4.17375H32.3888C32.9813 4.17375 33.4338 4.62625 33.4338 5.2175V17.7388H25.075C23.3575 17.7388 21.9413 19.1537 21.9413 20.87V42.7825H3.13375C2.5425 42.7825 2.09 42.33 2.09 41.7388V5.2175C2.09 4.62625 2.5425 4.17375 3.13375 4.17375ZM10.4475 4.17375H14.8225C15.26 5.38125 16.4113 6.26125 17.7613 6.26125C19.1125 6.26125 20.2638 5.38125 20.7 4.17375H25.075V7.305C25.075 7.895 24.6225 8.3475 24.03 8.3475H11.4925C10.9013 8.3475 10.4475 7.895 10.4475 7.305V4.17375ZM11.4925 14.6087V20.87H9.4025V17.7388H7.31375V20.87H5.22375V22.9562H19.8513V20.87H17.7613V16.6962H15.6725V20.87H13.5825V14.6087H11.4925ZM25.075 19.8263H43.8813C44.4738 19.8263 44.9263 20.2787 44.9263 20.87V44.87C44.9263 45.4613 44.4738 45.9137 43.8813 45.9137H25.075C24.4838 45.9137 24.03 45.4613 24.03 44.87V44.0225C24.0588 43.8837 24.0588 43.7362 24.03 43.5975V20.87C24.03 20.2787 24.4838 19.8263 25.075 19.8263ZM26.9688 21.9137C26.4713 22.0075 26.1125 22.4475 26.12 22.9562V27.1312C26.12 27.705 26.59 28.1737 27.165 28.1737H41.7925C42.3675 28.1737 42.8375 27.705 42.8375 27.1312V22.9562C42.8375 22.3825 42.3675 21.9137 41.7925 21.9137H27.165C27.1325 21.9137 27.1 21.9137 27.0675 21.9137C27.0338 21.9137 27.0013 21.9137 26.9688 21.9137ZM28.21 24H40.7475V26.0875H28.21V24ZM11.4925 27.1312C8.04375 27.1312 5.22375 29.9475 5.22375 33.3913C5.22375 36.8363 8.04375 39.6525 11.4925 39.6525C14.9413 39.6525 17.7613 36.8363 17.7613 33.3913C17.7613 29.9475 14.9413 27.1312 11.4925 27.1312ZM11.4925 29.2175V33.3913H15.6725C15.6725 35.7113 13.815 37.565 11.4925 37.565C9.17 37.565 7.31375 35.7113 7.31375 33.3913C7.31375 31.0725 9.17 29.2175 11.4925 29.2175ZM27.165 30.2612C26.59 30.2612 26.12 30.73 26.12 31.305V32.3475C26.12 32.9225 26.59 33.3913 27.165 33.3913H29.255C29.83 33.3913 30.2988 32.9225 30.2988 32.3475V31.305C30.2988 30.73 29.83 30.2612 29.255 30.2612H27.165ZM33.4338 30.2612C32.8588 30.2612 32.3888 30.73 32.3888 31.305V32.3475C32.3888 32.9225 32.8588 33.3913 33.4338 33.3913H35.5238C36.0988 33.3913 36.5688 32.9225 36.5688 32.3475V31.305C36.5688 30.73 36.0988 30.2612 35.5238 30.2612H33.4338ZM39.7025 30.2612C39.1275 30.2612 38.6575 30.73 38.6575 31.305V32.3475C38.6575 32.9225 39.1275 33.3913 39.7025 33.3913H41.7925C42.3675 33.3913 42.8375 32.9225 42.8375 32.3475V31.305C42.8375 30.73 42.3675 30.2612 41.7925 30.2612H39.7025ZM27.165 35.4787C26.59 35.4787 26.12 35.9475 26.12 36.5225V37.565C26.12 38.14 26.59 38.6087 27.165 38.6087H29.255C29.83 38.6087 30.2988 38.14 30.2988 37.565V36.5225C30.2988 35.9475 29.83 35.4787 29.255 35.4787H27.165ZM33.4338 35.4787C32.8588 35.4787 32.3888 35.9475 32.3888 36.5225V37.565C32.3888 38.14 32.8588 38.6087 33.4338 38.6087H35.5238C36.0988 38.6087 36.5688 38.14 36.5688 37.565V36.5225C36.5688 35.9475 36.0988 35.4787 35.5238 35.4787H33.4338ZM39.7025 35.4787C39.1275 35.4787 38.6575 35.9475 38.6575 36.5225V37.565C38.6575 38.14 39.1275 38.6087 39.7025 38.6087H41.7925C42.3675 38.6087 42.8375 38.14 42.8375 37.565V36.5225C42.8375 35.9475 42.3675 35.4787 41.7925 35.4787H39.7025ZM27.165 40.6963C26.59 40.6963 26.12 41.165 26.12 41.7388V42.7825C26.12 43.3575 26.59 43.8262 27.165 43.8262H29.255C29.83 43.8262 30.2988 43.3575 30.2988 42.7825V41.7388C30.2988 41.165 29.83 40.6963 29.255 40.6963H27.165ZM33.4338 40.6963C32.8588 40.6963 32.3888 41.165 32.3888 41.7388V42.7825C32.3888 43.3575 32.8588 43.8262 33.4338 43.8262H35.5238C36.0988 43.8262 36.5688 43.3575 36.5688 42.7825V41.7388C36.5688 41.165 36.0988 40.6963 35.5238 40.6963H33.4338ZM39.7025 40.6963C39.1275 40.6963 38.6575 41.165 38.6575 41.7388V42.7825C38.6575 43.3575 39.1275 43.8262 39.7025 43.8262H41.7925C42.3675 43.8262 42.8375 43.3575 42.8375 42.7825V41.7388C42.8375 41.165 42.3675 40.6963 41.7925 40.6963H39.7025Z" fill="#006FF1"/>
</svg>
