<svg width="31" height="30" viewBox="0 0 31 30" fill="none" xmlns="http://www.w3.org/2000/svg">
<mask id="mask0_30_195" style="mask-type:alpha" maskUnits="userSpaceOnUse" x="0" y="0" width="31" height="30">
<rect x="0.482666" width="30" height="30" fill="#D9D9D9"/>
</mask>
<g mask="url(#mask0_30_195)">
<path d="M15.4827 27.5C13.2743 27.5 11.4722 27.151 10.0764 26.4531C8.68058 25.7552 7.98267 24.8542 7.98267 23.75C7.98267 23.0208 8.28475 22.3854 8.88892 21.8438C9.49308 21.3021 10.3264 20.875 11.3889 20.5625L12.1077 22.9375C11.7535 23.0417 11.4306 23.1719 11.1389 23.3281C10.8472 23.4844 10.6493 23.625 10.5452 23.75C10.816 24.0833 11.441 24.375 12.4202 24.625C13.3993 24.875 14.4202 25 15.4827 25C16.5452 25 17.5712 24.875 18.5608 24.625C19.5504 24.375 20.1806 24.0833 20.4514 23.75C20.3472 23.625 20.1493 23.4844 19.8577 23.3281C19.566 23.1719 19.2431 23.0417 18.8889 22.9375L19.6077 20.5625C20.6702 20.875 21.4983 21.3021 22.092 21.8438C22.6858 22.3854 22.9827 23.0208 22.9827 23.75C22.9827 24.8542 22.2847 25.7552 20.8889 26.4531C19.4931 27.151 17.691 27.5 15.4827 27.5ZM15.4827 19.1562C15.8577 18.4688 16.2535 17.8385 16.6702 17.2656C17.0868 16.6927 17.4931 16.1458 17.8889 15.625C18.6597 14.625 19.2743 13.724 19.7327 12.9219C20.191 12.1198 20.4202 11.125 20.4202 9.9375C20.4202 8.5625 19.941 7.39583 18.9827 6.4375C18.0243 5.47917 16.8577 5 15.4827 5C14.1077 5 12.941 5.47917 11.9827 6.4375C11.0243 7.39583 10.5452 8.5625 10.5452 9.9375C10.5452 11.125 10.7743 12.1198 11.2327 12.9219C11.691 13.724 12.3056 14.625 13.0764 15.625C13.4722 16.1458 13.8785 16.6927 14.2952 17.2656C14.7118 17.8385 15.1077 18.4688 15.4827 19.1562ZM15.4827 23.75C15.2535 23.75 15.0452 23.6823 14.8577 23.5469C14.6702 23.4115 14.5347 23.2292 14.4514 23C13.9722 21.5208 13.3681 20.2812 12.6389 19.2812C11.9097 18.2812 11.2014 17.3229 10.5139 16.4062C9.84725 15.4896 9.26912 14.5417 8.77954 13.5625C8.28996 12.5833 8.04517 11.375 8.04517 9.9375C8.04517 7.85417 8.76392 6.09375 10.2014 4.65625C11.6389 3.21875 13.3993 2.5 15.4827 2.5C17.566 2.5 19.3264 3.21875 20.7639 4.65625C22.2014 6.09375 22.9202 7.85417 22.9202 9.9375C22.9202 11.375 22.6806 12.5833 22.2014 13.5625C21.7222 14.5417 21.1389 15.4896 20.4514 16.4062C19.7847 17.3229 19.0816 18.2812 18.342 19.2812C17.6025 20.2812 16.9931 21.5208 16.5139 23C16.4306 23.2292 16.2952 23.4115 16.1077 23.5469C15.9202 23.6823 15.7118 23.75 15.4827 23.75ZM15.4827 12.5938C16.2118 12.5938 16.8368 12.3333 17.3577 11.8125C17.8785 11.2917 18.1389 10.6667 18.1389 9.9375C18.1389 9.20833 17.8785 8.58333 17.3577 8.0625C16.8368 7.54167 16.2118 7.28125 15.4827 7.28125C14.7535 7.28125 14.1285 7.54167 13.6077 8.0625C13.0868 8.58333 12.8264 9.20833 12.8264 9.9375C12.8264 10.6667 13.0868 11.2917 13.6077 11.8125C14.1285 12.3333 14.7535 12.5938 15.4827 12.5938Z" fill="white"/>
</g>
</svg>
