<svg width="24" height="24" viewBox="0 0 24 24" fill="none" xmlns="http://www.w3.org/2000/svg">
<mask id="mask0_159_815" style="mask-type:alpha" maskUnits="userSpaceOnUse" x="0" y="0" width="24" height="24">
<rect width="24" height="24" fill="#D9D9D9"/>
</mask>
<g mask="url(#mask0_159_815)">
<path d="M4 21.96C3.45 21.96 2.97917 21.7407 2.5875 21.302C2.19583 20.8634 2 20.336 2 19.72V16.36H4V19.72H20V6.28004H4V9.64004H2V6.28004C2 5.66404 2.19583 5.13671 2.5875 4.69804C2.97917 4.25937 3.45 4.04004 4 4.04004H20C20.55 4.04004 21.0208 4.25937 21.4125 4.69804C21.8042 5.13671 22 5.66404 22 6.28004V19.72C22 20.336 21.8042 20.8634 21.4125 21.302C21.0208 21.7407 20.55 21.96 20 21.96H4ZM11.5 18.04L10.1 16.416L12.175 14.12H2V11.88H12.175L10.1 9.58404L11.5 7.96004L16 13L11.5 18.04Z" fill="#495AFF"/>
</g>
</svg>
