<svg width="41" height="52" viewBox="0 0 41 52" fill="none" xmlns="http://www.w3.org/2000/svg">
<path d="M22.9714 30.6286H12.7619C12.085 30.6286 11.4358 30.8975 10.9571 31.3761C10.4784 31.8548 10.2095 32.504 10.2095 33.1809C10.2095 33.8579 10.4784 34.5071 10.9571 34.9857C11.4358 35.4644 12.085 35.7333 12.7619 35.7333H22.9714C23.6484 35.7333 24.2976 35.4644 24.7762 34.9857C25.2549 34.5071 25.5238 33.8579 25.5238 33.1809C25.5238 32.504 25.2549 31.8548 24.7762 31.3761C24.2976 30.8975 23.6484 30.6286 22.9714 30.6286ZM33.1809 5.10476H30.1691C29.6425 3.61532 28.6682 2.32521 27.3796 1.41131C26.0909 0.497404 24.5512 0.00443989 22.9714 0H17.8667C16.2869 0.00443989 14.7471 0.497404 13.4585 1.41131C12.1699 2.32521 11.1955 3.61532 10.669 5.10476H7.65714C5.62634 5.10476 3.67872 5.91149 2.24273 7.34749C0.806732 8.78348 0 10.7311 0 12.7619V43.3905C0 45.4213 0.806732 47.3689 2.24273 48.8049C3.67872 50.2409 5.62634 51.0476 7.65714 51.0476H33.1809C35.2117 51.0476 37.1594 50.2409 38.5954 48.8049C40.0314 47.3689 40.8381 45.4213 40.8381 43.3905V12.7619C40.8381 10.7311 40.0314 8.78348 38.5954 7.34749C37.1594 5.91149 35.2117 5.10476 33.1809 5.10476ZM15.3143 7.65714C15.3143 6.98021 15.5832 6.331 16.0619 5.85234C16.5405 5.37367 17.1897 5.10476 17.8667 5.10476H22.9714C23.6484 5.10476 24.2976 5.37367 24.7762 5.85234C25.2549 6.331 25.5238 6.98021 25.5238 7.65714V10.2095H15.3143V7.65714ZM35.7333 43.3905C35.7333 44.0674 35.4644 44.7166 34.9858 45.1953C34.5071 45.6739 33.8579 45.9428 33.1809 45.9428H7.65714C6.98021 45.9428 6.331 45.6739 5.85234 45.1953C5.37367 44.7166 5.10476 44.0674 5.10476 43.3905V12.7619C5.10476 12.085 5.37367 11.4358 5.85234 10.9571C6.331 10.4784 6.98021 10.2095 7.65714 10.2095H10.2095V12.7619C10.2095 13.4388 10.4784 14.088 10.9571 14.5667C11.4358 15.0454 12.085 15.3143 12.7619 15.3143H28.0762C28.7531 15.3143 29.4023 15.0454 29.881 14.5667C30.3597 14.088 30.6286 13.4388 30.6286 12.7619V10.2095H33.1809C33.8579 10.2095 34.5071 10.4784 34.9858 10.9571C35.4644 11.4358 35.7333 12.085 35.7333 12.7619V43.3905ZM28.0762 20.419H12.7619C12.085 20.419 11.4358 20.688 10.9571 21.1666C10.4784 21.6453 10.2095 22.2945 10.2095 22.9714C10.2095 23.6484 10.4784 24.2976 10.9571 24.7762C11.4358 25.2549 12.085 25.5238 12.7619 25.5238H28.0762C28.7531 25.5238 29.4023 25.2549 29.881 24.7762C30.3597 24.2976 30.6286 23.6484 30.6286 22.9714C30.6286 22.2945 30.3597 21.6453 29.881 21.1666C29.4023 20.688 28.7531 20.419 28.0762 20.419Z" fill="white"/>
</svg>
