<svg width="24" height="24" viewBox="0 0 24 24" fill="none" xmlns="http://www.w3.org/2000/svg">
<mask id="mask0_159_821" style="mask-type:alpha" maskUnits="userSpaceOnUse" x="0" y="0" width="24" height="24">
<rect width="24" height="24" transform="matrix(-1 0 0 1 24 0)" fill="#D9D9D9"/>
</mask>
<g mask="url(#mask0_159_821)">
<path d="M20.8947 21.6842C21.4737 21.6842 21.9693 21.4895 22.3816 21.1001C22.7939 20.7107 23 20.2426 23 19.6959V5.77773C23 5.23095 22.7939 4.76287 22.3816 4.37349C21.9693 3.98412 21.4737 3.78943 20.8947 3.78943H6.15789C5.57895 3.78943 5.08333 3.98412 4.67105 4.37349C4.25877 4.76287 4.05263 5.23095 4.05263 5.77773V7.76604H6.15789V5.77773H20.8947V19.6959H6.15789V17.7076H4.05263V19.6959C4.05263 20.2426 4.25877 20.7107 4.67105 21.1001C5.08333 21.4895 5.57895 21.6842 6.15789 21.6842H20.8947ZM8.26316 17.7076L9.73684 16.3157L7.02631 13.7309H16.6842V11.7426H7.02631L9.73684 9.15785L8.26316 7.76604L3 12.7368L8.26316 17.7076Z" fill="#495AFF"/>
</g>
</svg>
