<svg width="25" height="25" viewBox="0 0 25 25" fill="none" xmlns="http://www.w3.org/2000/svg">
<g clip-path="url(#clip0_159_410)">
<path d="M14.5832 17.1875C14.9844 17.1877 15.3702 17.3423 15.6607 17.6192C15.9511 17.8961 16.1238 18.2741 16.1431 18.6749C16.1624 19.0757 16.0267 19.4686 15.7642 19.7721C15.5018 20.0756 15.1326 20.2665 14.7332 20.3052L14.5832 20.3125H10.4165C10.0152 20.3123 9.62943 20.1577 9.33902 19.8808C9.04861 19.6039 8.87587 19.2259 8.85658 18.8251C8.8373 18.4243 8.97295 18.0314 9.23544 17.7279C9.49792 17.4244 9.86711 17.2335 10.2665 17.1948L10.4165 17.1875H14.5832ZM17.7082 10.9375C18.1226 10.9375 18.52 11.1021 18.813 11.3951C19.106 11.6882 19.2707 12.0856 19.2707 12.5C19.2707 12.9144 19.106 13.3118 18.813 13.6049C18.52 13.8979 18.1226 14.0625 17.7082 14.0625H7.2915C6.8771 14.0625 6.47967 13.8979 6.18665 13.6049C5.89362 13.3118 5.729 12.9144 5.729 12.5C5.729 12.0856 5.89362 11.6882 6.18665 11.3951C6.47967 11.1021 6.8771 10.9375 7.2915 10.9375H17.7082ZM20.8332 4.6875C21.2476 4.6875 21.645 4.85212 21.938 5.14515C22.231 5.43817 22.3957 5.8356 22.3957 6.25C22.3957 6.6644 22.231 7.06183 21.938 7.35485C21.645 7.64788 21.2476 7.8125 20.8332 7.8125H4.1665C3.7521 7.8125 3.35468 7.64788 3.06165 7.35485C2.76862 7.06183 2.604 6.6644 2.604 6.25C2.604 5.8356 2.76862 5.43817 3.06165 5.14515C3.35468 4.85212 3.7521 4.6875 4.1665 4.6875H20.8332Z" fill="white"/>
</g>
<defs>
<clipPath id="clip0_159_410">
<rect width="25" height="25" fill="white"/>
</clipPath>
</defs>
</svg>
