<svg width="53" height="53" viewBox="0 0 53 53" fill="none" xmlns="http://www.w3.org/2000/svg">
<path d="M45.5469 0C41.4477 0 38.0938 3.35391 38.0938 7.45312C38.0938 9.19219 38.7148 10.807 39.7086 12.0906L34.3672 17.432C32.2555 15.6102 29.5227 14.4922 26.5 14.4922C23.4773 14.4922 20.7445 15.6102 18.6328 17.432L14.9477 13.7469C15.9828 12.4633 16.5625 10.8484 16.5625 9.10938C16.5625 5.01016 13.2086 1.65625 9.10938 1.65625C5.01016 1.65625 1.65625 5.01016 1.65625 9.10938C1.65625 13.2086 5.01016 16.5625 9.10938 16.5625C10.8484 16.5625 12.4633 15.9414 13.7469 14.9062L15.0719 16.2312C9.85469 22.0281 9.85469 30.8891 15.0719 36.6859L12.0906 39.75C10.807 38.7148 9.19219 38.0938 7.45312 38.0938C3.35391 38.0938 0 41.4477 0 45.5469C0 49.6461 3.35391 53 7.45312 53C11.5523 53 14.9062 49.6461 14.9062 45.5469C14.9062 43.8078 14.2852 42.193 13.2914 40.9094L18.6328 35.568C20.7445 37.3898 23.5187 38.5078 26.5 38.5078C29.4812 38.5078 32.2555 37.3898 34.3672 35.568L37.6383 38.8391C36.6031 40.1227 36.0234 41.7375 36.0234 43.4766C36.0234 47.5758 39.3773 50.9297 43.4766 50.9297C47.5758 50.9297 50.9297 47.5758 50.9297 43.4766C50.9297 39.3773 47.5758 36.0234 43.4766 36.0234C41.7375 36.0234 40.1227 36.6445 38.8391 37.6797L37.9281 36.7687C43.1453 30.9719 43.1453 22.1109 37.9281 16.3141L40.9094 13.3328C41.1992 13.5812 41.5305 13.7883 41.8617 13.9953C41.9031 14.0367 41.9445 14.0367 41.9445 14.0367C43.0211 14.6164 44.2219 14.9477 45.5469 14.9477C46.8305 14.9477 48.0727 14.6164 49.1078 14.0367C49.1492 13.9953 49.1906 13.9953 49.2734 13.9539C51.5094 12.6703 53 10.2688 53 7.49453C53 3.35391 49.6461 0 45.5469 0ZM11.5109 14.2852C11.5109 14.3266 11.5109 14.3266 11.5109 14.368C10.7656 14.6992 9.97891 14.9062 9.10938 14.9062C8.23984 14.9062 7.45312 14.6992 6.70781 14.368C6.70781 14.3266 6.70781 14.3266 6.70781 14.2852C6.66641 14.0781 6.625 13.8711 6.625 13.6641C6.625 12.2977 7.74297 11.1797 9.10938 11.1797C10.4758 11.1797 11.5938 12.2977 11.5938 13.6641C11.5938 13.8711 11.5523 14.0781 11.5109 14.2852ZM7.86719 8.28125C7.86719 7.57734 8.40547 7.03906 9.10938 7.03906C9.81328 7.03906 10.3516 7.57734 10.3516 8.28125C10.3516 8.98516 9.81328 9.52344 9.10938 9.52344C8.40547 9.52344 7.86719 8.98516 7.86719 8.28125ZM13.2086 13.2086C13.043 11.925 12.3391 10.8484 11.3039 10.1859C11.718 9.68906 12.0078 9.02656 12.0078 8.32266C12.0078 6.70781 10.7242 5.42422 9.10938 5.42422C7.49453 5.42422 6.21094 6.70781 6.21094 8.32266C6.21094 9.02656 6.45937 9.68906 6.91484 10.1859C5.87969 10.8484 5.13437 11.925 5.01016 13.2086C3.975 12.132 3.3125 10.6828 3.3125 9.10938C3.3125 5.92109 5.92109 3.3125 9.10938 3.3125C12.2977 3.3125 14.9062 5.92109 14.9062 9.10938C14.9062 10.6828 14.2437 12.132 13.2086 13.2086ZM9.85469 50.7227C9.85469 50.7641 9.85469 50.7641 9.85469 50.8055C9.10938 51.1367 8.32266 51.3438 7.45312 51.3438C6.58359 51.3438 5.79688 51.1367 5.05156 50.8055C5.05156 50.7641 5.05156 50.7641 5.05156 50.7227C5.01016 50.5156 4.96875 50.3086 4.96875 50.1016C4.96875 48.7352 6.08672 47.6172 7.45312 47.6172C8.81953 47.6172 9.9375 48.7352 9.9375 50.1016C9.9375 50.3086 9.89609 50.5156 9.85469 50.7227ZM6.21094 44.7188C6.21094 44.0148 6.74922 43.4766 7.45312 43.4766C8.15703 43.4766 8.69531 44.0148 8.69531 44.7188C8.69531 45.4227 8.15703 45.9609 7.45312 45.9609C6.74922 45.9609 6.21094 45.4227 6.21094 44.7188ZM11.5523 49.6461C11.3867 48.3625 10.6828 47.2859 9.64766 46.6234C10.0617 46.1266 10.3516 45.4641 10.3516 44.7602C10.3516 43.1453 9.06797 41.8617 7.45312 41.8617C5.83828 41.8617 4.55469 43.1453 4.55469 44.7602C4.55469 45.4641 4.80312 46.1266 5.25859 46.6234C4.22344 47.2859 3.47812 48.3625 3.35391 49.6461C2.31875 48.6109 1.65625 47.1617 1.65625 45.5469C1.65625 42.3586 4.26484 39.75 7.45312 39.75C10.6414 39.75 13.25 42.3586 13.25 45.5469C13.25 47.1203 12.5875 48.5695 11.5523 49.6461ZM16.2727 35.568C11.718 30.4336 11.718 22.6078 16.2727 17.4734L17.432 18.6328C15.6102 20.7445 14.4922 23.4773 14.4922 26.5C14.4922 29.5227 15.6102 32.2555 17.432 34.3672L16.2727 35.568ZM26.5 36.8516C20.7859 36.8516 16.1484 32.2141 16.1484 26.5C16.1484 20.7859 20.7859 16.1484 26.5 16.1484C32.2141 16.1484 36.8516 20.7859 36.8516 26.5C36.8516 32.2141 32.2141 36.8516 26.5 36.8516ZM45.8781 48.6523C45.8781 48.6937 45.8781 48.6937 45.8781 48.7352C45.1328 49.0664 44.3461 49.2734 43.4766 49.2734C42.607 49.2734 41.8203 49.0664 41.075 48.7352C41.075 48.6937 41.075 48.6937 41.075 48.6523C41.0336 48.4453 40.9922 48.2383 40.9922 48.0312C40.9922 46.6648 42.1102 45.5469 43.4766 45.5469C44.843 45.5469 45.9609 46.6648 45.9609 48.0312C45.9609 48.2383 45.9195 48.4453 45.8781 48.6523ZM42.2344 42.6484C42.2344 41.9445 42.7727 41.4062 43.4766 41.4062C44.1805 41.4062 44.7188 41.9445 44.7188 42.6484C44.7188 43.3523 44.1805 43.8906 43.4766 43.8906C42.7727 43.8906 42.2344 43.3523 42.2344 42.6484ZM43.4766 37.6797C46.6648 37.6797 49.2734 40.2883 49.2734 43.4766C49.2734 45.05 48.6109 46.4992 47.5758 47.5758C47.4102 46.2922 46.7062 45.2156 45.6711 44.5531C46.0852 44.0562 46.375 43.3937 46.375 42.6898C46.375 41.075 45.0914 39.7914 43.4766 39.7914C41.8617 39.7914 40.5781 41.075 40.5781 42.6898C40.5781 43.3937 40.8266 44.0562 41.282 44.5531C40.2469 45.2156 39.5016 46.2922 39.3773 47.5758C38.3422 46.5406 37.6797 45.0914 37.6797 43.4766C37.6797 40.2883 40.2883 37.6797 43.4766 37.6797ZM36.7273 35.568L35.568 34.3672C37.3898 32.2555 38.5078 29.4812 38.5078 26.5C38.5078 23.5187 37.3898 20.7445 35.568 18.6328L36.7273 17.4734C41.282 22.6078 41.282 30.3922 36.7273 35.568ZM48.0312 12.6703C47.2859 13.043 46.4578 13.25 45.5469 13.25C44.6359 13.25 43.8492 13.043 43.0625 12.6703C43.0625 12.5875 43.0625 12.5047 43.0625 12.4219C43.0625 11.0555 44.1805 9.9375 45.5469 9.9375C46.9133 9.9375 48.0312 11.0555 48.0312 12.4219C48.0312 12.5047 48.0312 12.5875 48.0312 12.6703ZM44.3047 7.03906C44.3047 6.33516 44.843 5.79688 45.5469 5.79688C46.2508 5.79688 46.7891 6.33516 46.7891 7.03906C46.7891 7.74297 46.2508 8.28125 45.5469 8.28125C44.843 8.28125 44.3047 7.74297 44.3047 7.03906ZM49.6047 11.5938C49.3562 10.4758 48.6937 9.52344 47.7414 8.94375C48.1555 8.44687 48.4453 7.78437 48.4453 7.08047C48.4453 5.46562 47.1617 4.18203 45.5469 4.18203C43.932 4.18203 42.6484 5.46562 42.6484 7.08047C42.6484 7.78437 42.8969 8.44687 43.3523 8.94375C42.4 9.52344 41.7375 10.4758 41.4891 11.5938C40.4125 10.5586 39.75 9.06797 39.75 7.45312C39.75 4.26484 42.3586 1.65625 45.5469 1.65625C48.7352 1.65625 51.3438 4.26484 51.3438 7.45312C51.3438 9.06797 50.6812 10.5172 49.6047 11.5938Z" fill="#006FF1"/>
</svg>
