<svg width="48" height="48" viewBox="0 0 48 48" fill="none" xmlns="http://www.w3.org/2000/svg">
<path d="M8.99953 24.7131V23.287V23.2494H5.99969V22.6877C5.99969 22.425 5.84957 22.1623 5.62439 22.0497L3.37514 20.7375C3.14996 20.5873 2.84973 20.5873 2.62455 20.7375L0.375293 22.0497C0.150117 22.1999 0 22.425 0 22.6877V25.3123C0 25.575 0.150117 25.8377 0.375293 25.9503L2.62455 27.2626C2.73714 27.3376 2.88726 27.3752 2.99984 27.3752C3.11243 27.3752 3.26255 27.3376 3.37514 27.2626L5.62439 25.9503C5.84957 25.8002 5.99969 25.575 5.99969 25.3123V24.7506H8.99953V24.7131ZM4.49977 24.8995L2.99984 25.7626L1.49992 24.8995V23.1381L2.99984 22.2749L4.49977 23.1381V24.8995Z" fill="#006FF1"/>
<path d="M34.0879 12.9001L35.0999 13.9121C35.0999 13.9121 35.0999 13.9496 35.1375 13.9496L36.9376 12.1495L39.038 12.7124C39.1131 12.7124 39.1506 12.75 39.2244 12.75C39.4121 12.75 39.5997 12.6749 39.7498 12.5248L41.625 10.6871C41.8127 10.4995 41.8877 10.238 41.8127 9.97529L41.1371 7.46208C41.0621 7.19937 40.8744 7.01298 40.613 6.93792L38.0998 6.26239C37.8371 6.18733 37.5756 6.26239 37.388 6.45004L35.5503 8.28772C35.3626 8.47537 35.2876 8.73807 35.3626 8.99953L35.9256 11.0999L34.0879 12.9001C34.0879 12.8625 34.0879 12.8625 34.0879 12.9001ZM38.1373 7.72478L39.8249 8.17513L40.2752 9.8627L39.038 11.0999L37.3504 10.6496L36.9001 8.962L38.1373 7.72478Z" fill="#006FF1"/>
<path d="M13.9121 35.0999L12.9001 34.0879C12.9001 34.0879 12.9001 34.0503 12.8625 34.0503L11.0624 35.8505L8.962 35.2876C8.70055 35.2125 8.43784 35.2876 8.25019 35.4752L6.37498 37.3129C6.18733 37.5005 6.11227 37.762 6.18733 38.0247L6.86286 40.5379C6.93792 40.7994 7.12557 40.987 7.38702 41.0621L9.90023 41.7376C9.97529 41.7376 10.0128 41.7751 10.0879 41.7751C10.2755 41.7751 10.4619 41.7001 10.612 41.5499L12.4497 39.6747C12.6374 39.4871 12.7124 39.2244 12.6374 38.9629L12.0744 36.8625L13.9121 35.0999C13.9121 35.1374 13.9121 35.1374 13.9121 35.0999ZM9.8627 40.2752L8.17514 39.8249L7.72478 38.1373L8.962 36.9001L10.6496 37.3504L11.0999 39.038L9.8627 40.2752Z" fill="#006FF1"/>
<path d="M34.1629 30.0747L33.2998 29.2128C33.7126 28.4622 34.0504 27.6754 34.2755 26.8497H35.4752C36.5999 26.8497 37.5006 25.8752 37.5006 24.6755V23.2494C37.5006 22.0497 36.5999 21.0752 35.4752 21.0752H34.2755C34.0504 20.2496 33.7126 19.4627 33.2998 18.7121L34.1629 17.8502C34.9498 17.0621 34.9123 15.7498 34.0504 14.8879L33.0371 13.8746C32.1751 13.0127 30.8629 12.9751 30.0748 13.762L29.2128 14.6252C28.4622 14.2123 27.6754 13.8746 26.8497 13.6494V12.4122C26.8497 11.2876 25.8752 10.3869 24.6755 10.3869H23.2494C22.0497 10.3869 21.0752 11.2876 21.0752 12.4122V13.6494C20.2496 13.8746 19.4627 14.2123 18.7121 14.6252L17.8502 13.762C17.0621 12.9751 15.7498 13.0127 14.8879 13.8746L13.8746 14.8879C13.0127 15.7123 12.9751 17.0621 13.762 17.8502L14.6252 18.7121C14.2124 19.4627 13.8746 20.2496 13.6494 21.0752H12.4122C11.2876 21.0752 10.3869 22.0497 10.3869 23.2494V24.6755C10.3869 25.8752 11.2876 26.8497 12.4122 26.8497H13.6494C13.8746 27.6754 14.2124 28.4622 14.6252 29.2128L13.762 30.0747C12.9751 30.8629 13.0127 32.1751 13.8746 33.0371L14.8879 34.0503C15.7498 34.8747 17.0621 34.9498 17.8502 34.1629L18.7121 33.2998C19.4627 33.7126 20.2496 34.0503 21.0752 34.2755V35.5127C21.0752 36.6374 22.0497 37.5381 23.2494 37.5381H24.6755C25.8752 37.5381 26.8497 36.6374 26.8497 35.5127V34.2755C27.6754 34.0503 28.4622 33.7126 29.2128 33.2998L30.0748 34.1629C30.8629 34.9498 32.1751 34.8747 33.0371 34.0503L34.0504 33.0371C34.8748 32.2127 34.9498 30.8629 34.1629 30.0747ZM32.9995 31.9875L31.9875 32.9995C31.7248 33.2622 31.3495 33.2998 31.1631 33.1121L29.8871 31.8374C29.6244 31.5747 29.2504 31.5371 28.9501 31.7248C28.0494 32.3252 27.0374 32.7381 25.9878 32.962C25.65 33.0371 25.3873 33.3373 25.3873 33.7126V35.5127C25.3873 35.7754 25.0871 36.0369 24.7131 36.0369H23.287C22.9129 36.0369 22.6127 35.813 22.6127 35.5127V33.7126C22.6127 33.3748 22.35 33.0371 22.0122 32.962C20.9626 32.7381 19.9506 32.3252 19.0499 31.7248C18.9373 31.6497 18.7872 31.6122 18.6371 31.6122C18.4494 31.6122 18.263 31.6872 18.1129 31.8374L16.8369 33.1121C16.6505 33.2998 16.2752 33.2622 16.0125 32.9995L15.0005 31.9875C14.7378 31.7248 14.7002 31.3495 14.8879 31.1631L16.1626 29.8871C16.4253 29.6244 16.4629 29.2503 16.2752 28.9501C15.6748 28.0119 15.2619 27.0374 15.038 25.9878C14.9629 25.65 14.6627 25.3873 14.2874 25.3873H12.4873C12.2246 25.3873 11.9631 25.0871 11.9631 24.713V23.2869C11.9631 22.9129 12.187 22.6127 12.4873 22.6127H14.2874C14.6252 22.6127 14.9629 22.35 15.038 22.0122C15.2619 20.9626 15.6748 19.9506 16.2752 19.0499C16.4629 18.7496 16.4253 18.3743 16.1626 18.1129L14.8879 16.8369C14.7002 16.6505 14.7378 16.2752 15.0005 16.0125L16.0125 15.0005C16.2752 14.7378 16.6505 14.7002 16.8369 14.8879L18.1129 16.1626C18.3756 16.4253 18.7497 16.4629 19.0499 16.2752C19.9881 15.6747 20.9626 15.2619 22.0122 15.038C22.35 14.9629 22.6127 14.6627 22.6127 14.2874V12.4872C22.6127 12.2245 22.9129 11.9631 23.287 11.9631H24.7131C25.0871 11.9631 25.3873 12.187 25.3873 12.4872V14.2874C25.3873 14.6252 25.65 14.9629 25.9878 15.038C27.0374 15.2619 28.0494 15.6747 28.9501 16.2752C29.2504 16.4629 29.6244 16.4253 29.8871 16.1626L31.1631 14.8879C31.3495 14.7002 31.7248 14.7378 31.9875 15.0005L32.9995 16.0125C33.2622 16.2752 33.2998 16.6505 33.1121 16.8369L31.8374 18.1129C31.5747 18.3743 31.5371 18.7496 31.7248 19.0499C32.3253 19.9506 32.7381 20.9626 32.962 22.0122C33.0371 22.35 33.3373 22.6127 33.7126 22.6127H35.5128C35.7755 22.6127 36.0369 22.9129 36.0369 23.2869V24.713C36.0369 25.0871 35.813 25.3873 35.5128 25.3873H33.7126C33.3748 25.3873 33.0371 25.65 32.962 25.9878C32.7381 27.0374 32.3253 28.0494 31.7248 28.9501C31.5371 29.2503 31.5747 29.6244 31.8374 29.8871L33.1121 31.1631C33.2998 31.3495 33.2247 31.7248 32.9995 31.9875Z" fill="#006FF1"/>
<path d="M24 18.3744C20.8875 18.3744 18.3756 20.8876 18.3756 24C18.3756 27.1124 20.8875 29.6244 24 29.6244C27.1124 29.6244 29.6244 27.1124 29.6244 24C29.6244 20.8876 27.1124 18.3744 24 18.3744ZM24 28.1245C21.7119 28.1245 19.8755 26.288 19.8755 24C19.8755 21.712 21.7119 19.8755 24 19.8755C26.288 19.8755 28.1244 21.712 28.1244 24C28.1244 26.288 26.288 28.1245 24 28.1245Z" fill="#006FF1"/>
<path d="M21.3755 5.32541L23.2494 6.41251V8.99953H23.287H24.7131H24.7506V6.41251L26.6246 5.32541C26.8498 5.17529 26.9999 4.95012 26.9999 4.68741V2.06286C26.9999 1.80016 26.8498 1.53745 26.6246 1.42486L24.3753 0.112588C24.1501 -0.0375293 23.8499 -0.0375293 23.6247 0.112588L21.3755 1.42486C21.1503 1.57498 21.0002 1.80016 21.0002 2.06286V4.68741C21.0002 4.95012 21.1503 5.21282 21.3755 5.32541ZM22.5001 2.47443L24 1.61251L25.4999 2.47443V4.23706L24 5.10023L22.5001 4.23706V2.47443Z" fill="#006FF1"/>
<path d="M26.6246 42.6746L24.7506 41.5875V39.0005H24.7131H23.287H23.2494V41.5875L21.3755 42.6746C21.1503 42.8247 21.0002 43.0499 21.0002 43.3126V45.9371C21.0002 46.1998 21.1503 46.4625 21.3755 46.5751L23.6247 47.8874C23.7373 47.9625 23.8874 48 24 48C24.1126 48 24.2627 47.9625 24.3753 47.8874L26.6246 46.5751C26.8498 46.425 26.9999 46.1998 26.9999 45.9371V43.3126C26.9999 43.0499 26.8498 42.7872 26.6246 42.6746ZM25.4999 45.5256L24 46.3875L22.5001 45.5256V43.7629L24 42.8998L25.4999 43.7629V45.5256Z" fill="#006FF1"/>
<path d="M47.6247 22.0497L45.3754 20.7375C45.1503 20.5873 44.85 20.5873 44.6249 20.7375L42.3756 22.0497C42.1504 22.1999 42.0003 22.425 42.0003 22.6877V23.2494H39.0005V23.287V24.7131V24.7506H42.0003V25.3123C42.0003 25.575 42.1504 25.8377 42.3756 25.9503L44.6249 27.2626C44.7374 27.3376 44.8876 27.3752 45.0001 27.3752C45.1127 27.3752 45.2628 27.3376 45.3754 27.2626L47.6247 25.9503C47.8499 25.8002 48 25.575 48 25.3123V22.6877C48 22.425 47.8499 22.1623 47.6247 22.0497ZM46.5001 24.8995L45.0001 25.7626L43.5002 24.8995V23.1381L45.0001 22.2749L46.5001 23.1381V24.8995Z" fill="#006FF1"/>
<path d="M39.7873 35.5503C39.5997 35.3626 39.337 35.2876 39.0755 35.3626L36.9751 35.9256L35.175 34.1254C35.175 34.1254 35.175 34.1629 35.1375 34.1629L34.1254 35.0999L34.0879 35.1375L35.888 36.9376L35.3251 39.038C35.25 39.2995 35.3251 39.5622 35.5128 39.7498L37.3504 41.625C37.5006 41.7751 37.687 41.8502 37.8746 41.8502C37.9497 41.8502 37.9872 41.8502 38.0622 41.8127L40.5755 41.1371C40.8369 41.0621 41.0246 40.8744 41.0996 40.613L41.7751 38.0998C41.8502 37.8371 41.7751 37.5756 41.5875 37.388L39.7873 35.5503ZM39.8249 39.8249L38.1373 40.2752L36.9001 39.038L37.3504 37.3504L39.038 36.9001L40.2752 38.1373L39.8249 39.8249Z" fill="#006FF1"/>
<path d="M8.21266 12.4497C8.36278 12.5998 8.55043 12.6749 8.73808 12.6749C8.81188 12.6749 8.84941 12.6749 8.92447 12.6374L11.0249 12.0744L12.825 13.8746L12.8625 13.8371L13.8746 12.825L13.9121 12.7875L12.112 10.9873L12.6749 8.88694C12.75 8.62549 12.6749 8.36278 12.4873 8.17514L10.612 6.37498C10.4244 6.18733 10.1629 6.11227 9.90023 6.18733L7.38702 6.86286C7.12557 6.93792 6.93792 7.12557 6.86286 7.38702L6.18733 9.90023C6.11227 10.1629 6.18733 10.4244 6.37498 10.612L8.21266 12.4497ZM8.17514 8.17514L9.8627 7.72478L11.0999 8.962L10.6496 10.6496L8.962 11.0999L7.72478 9.8627L8.17514 8.17514Z" fill="#006FF1"/>
</svg>
